# xmcd
#
# Track frame offsets:
# 200
# 13675
# 27925
# 43222
# 52927
# 69745
# 81907
# 101225
# 117042
# 131887
# 148807
# 165425
#
# Disc length: 2463 seconds
#
#
# Revision: 7
# Processed by: cddbd v1.5.2PL0 Copyright (c) Steve Scherf et al.
# Submitted via: FreeRIP 2.96 
#
DISCID=a8099d0c
DTITLE=The Haunted - The Haunted
DYEAR=1998
DGENRE=Metal
TTITLE0=Hate Song
TTITLE1=Chasm
TTITLE2=In Vein
TTITLE3=Undead
TTITLE4=Choke Hold
TTITLE5=Three Times
TTITLE6=Bullet Hole
TTITLE7=Now You Know
TTITLE8=Shattered
TTITLE9=Soul Fracture
TTITLE10=Blood Rust
TTITLE11=Forensick
EXTD=
EXTT0=
EXTT1=
EXTT2=
EXTT3=
EXTT4=
EXTT5=
EXTT6=
EXTT7=
EXTT8=
EXTT9=
EXTT10=
EXTT11=
PLAYORDER=
